<svg id="wave" style="transform:rotate(0deg); transition: 0.3s; background-color: #151719;" viewBox="0 0 1440 100" version="1.1" xmlns="http://www.w3.org/2000/svg"><path style="transform:translate(0, 0px); opacity:1" fill="#25282c" d="M0,30L14.1,25C28.2,20,56,10,85,18.3C112.9,27,141,53,169,56.7C197.6,60,226,40,254,30C282.4,20,311,20,339,31.7C367.1,43,395,67,424,63.3C451.8,60,480,30,508,30C536.5,30,565,60,593,73.3C621.2,87,649,83,678,75C705.9,67,734,53,762,45C790.6,37,819,33,847,33.3C875.3,33,904,37,932,33.3C960,30,988,20,1016,26.7C1044.7,33,1073,57,1101,55C1129.4,53,1158,27,1186,23.3C1214.1,20,1242,40,1271,50C1298.8,60,1327,60,1355,61.7C1383.5,63,1412,67,1440,71.7C1468.2,77,1496,83,1525,86.7C1552.9,90,1581,90,1609,88.3C1637.6,87,1666,83,1694,73.3C1722.4,63,1751,47,1779,33.3C1807.1,20,1835,10,1864,5C1891.8,0,1920,0,1948,8.3C1976.5,17,2005,33,2019,41.7L2032.9,50L2032.9,100L2018.8,100C2004.7,100,1976,100,1948,100C1920,100,1892,100,1864,100C1835.3,100,1807,100,1779,100C1750.6,100,1722,100,1694,100C1665.9,100,1638,100,1609,100C1581.2,100,1553,100,1525,100C1496.5,100,1468,100,1440,100C1411.8,100,1384,100,1355,100C1327.1,100,1299,100,1271,100C1242.4,100,1214,100,1186,100C1157.6,100,1129,100,1101,100C1072.9,100,1045,100,1016,100C988.2,100,960,100,932,100C903.5,100,875,100,847,100C818.8,100,791,100,762,100C734.1,100,706,100,678,100C649.4,100,621,100,593,100C564.7,100,536,100,508,100C480,100,452,100,424,100C395.3,100,367,100,339,100C310.6,100,282,100,254,100C225.9,100,198,100,169,100C141.2,100,113,100,85,100C56.5,100,28,100,14,100L0,100Z"></path></svg>