<svg width="30" height="30" viewBox="0 0 30 30" fill="none" xmlns="http://www.w3.org/2000/svg">
	<path d="M12.6568 20.7514L6.99992 15.0945L8.88554 13.2089L12.6568 16.9801L20.1992 9.43767L22.0849 11.3233L12.6568 20.7514Z" fill="white"/>
	<path fill-rule="evenodd" clip-rule="evenodd" d="M0.333252 14.9998C0.333252 6.89962 6.89974 0.33313 14.9999 0.33313C23.1001 0.33313 29.6666 6.89962 29.6666 14.9998C29.6666 23.1 23.1001 29.6665 14.9999 29.6665C6.89974 29.6665 0.333252 23.1 0.333252 14.9998ZM14.9999 26.9998C8.3725 26.9998 2.99992 21.6272 2.99992 14.9998C2.99992 8.37238 8.3725 2.9998 14.9999 2.9998C21.6273 2.9998 26.9999 8.37238 26.9999 14.9998C26.9999 21.6272 21.6273 26.9998 14.9999 26.9998Z" fill="white"/>
</svg>
